<svg width="407.5" height="79.201" viewBox="0 0 407.5 79.201" xmlns="http://www.w3.org/2000/svg"><g id="svgGroup" stroke-linecap="round" fill-rule="evenodd" font-size="9pt" stroke="#000" stroke-width="0.3mm" fill="#000" style="stroke:#000;stroke-width:0.3mm;fill:#000"><path d="M 86.3 16.4 L 86.3 0 L 118.3 0 L 118.3 16.4 L 114.3 16.4 L 99.4 77.8 L 69.5 77.8 L 60.4 34.6 L 59.4 34.6 L 49.8 77.8 L 19.9 77.8 L 4 16.4 L 0 16.4 L 0 0 L 37 0 L 37 16.4 L 33.2 16.4 L 37.1 41.9 L 38.1 41.9 L 47.6 0 L 76.4 0 L 85.2 41.9 L 86.2 41.9 L 90.1 16.4 L 86.3 16.4 Z M 274.1 61.4 L 278.5 61.4 L 278.5 77.8 L 246.9 77.8 L 246.9 61.4 L 251.1 61.4 L 251.1 45 Q 251.1 43.034 250.603 41.689 A 4.692 4.692 0 0 0 249.7 40.15 A 4.417 4.417 0 0 0 247.682 38.897 Q 246.964 38.674 246.096 38.619 A 9.323 9.323 0 0 0 245.5 38.6 A 8.086 8.086 0 0 0 243.089 38.929 Q 239.5 40.05 239.5 45 L 239.5 61.4 L 243.7 61.4 L 243.7 77.8 L 212.3 77.8 L 212.3 61.4 L 216.5 61.4 L 216.5 45 Q 216.5 43.034 216.003 41.689 A 4.692 4.692 0 0 0 215.1 40.15 A 4.417 4.417 0 0 0 213.082 38.897 Q 212.364 38.674 211.496 38.619 A 9.323 9.323 0 0 0 210.9 38.6 A 8.086 8.086 0 0 0 208.489 38.929 Q 204.9 40.05 204.9 45 L 204.9 61.4 L 209.1 61.4 L 209.1 77.8 L 177.5 77.8 L 177.5 61.4 L 181.9 61.4 L 181.9 38.6 L 177.5 38.6 L 177.5 22.2 L 204.9 22.2 L 204.9 30 A 25.708 25.708 0 0 1 211.074 24.216 A 21.191 21.191 0 0 1 222.9 20.8 A 21.372 21.372 0 0 1 227.159 21.201 Q 229.828 21.744 231.917 23.021 A 12.74 12.74 0 0 1 232.85 23.65 A 14.494 14.494 0 0 1 237.426 29.392 A 18.901 18.901 0 0 1 238.3 31.7 A 30.66 30.66 0 0 1 242.292 26.976 A 24.263 24.263 0 0 1 246.55 23.7 A 19.369 19.369 0 0 1 253.724 21.173 A 25.234 25.234 0 0 1 257.5 20.9 A 21.039 21.039 0 0 1 262.391 21.434 A 13.307 13.307 0 0 1 269.95 26.1 Q 274.1 31.3 274.1 40.4 L 274.1 61.4 Z M 403.1 61.4 L 407.5 61.4 L 407.5 77.8 L 375.9 77.8 L 375.9 61.4 L 380.1 61.4 L 380.1 45 Q 380.1 43.034 379.603 41.689 A 4.692 4.692 0 0 0 378.7 40.15 A 4.417 4.417 0 0 0 376.682 38.897 Q 375.964 38.674 375.096 38.619 A 9.323 9.323 0 0 0 374.5 38.6 A 8.086 8.086 0 0 0 372.089 38.929 Q 368.5 40.05 368.5 45 L 368.5 61.4 L 372.7 61.4 L 372.7 77.8 L 341.1 77.8 L 341.1 61.4 L 345.5 61.4 L 345.5 38.6 L 341.1 38.6 L 341.1 22.2 L 368.5 22.2 L 368.5 30 A 25.708 25.708 0 0 1 374.674 24.216 A 21.191 21.191 0 0 1 386.5 20.8 A 21.039 21.039 0 0 1 391.391 21.334 A 13.307 13.307 0 0 1 398.95 26 Q 403.1 31.2 403.1 40.3 L 403.1 61.4 Z M 338.1 46.4 L 338.1 53.6 L 305.7 53.6 L 305.7 54.2 A 9.836 9.836 0 0 0 305.904 56.274 Q 306.18 57.552 306.828 58.5 A 5.25 5.25 0 0 0 307.9 59.65 Q 310.1 61.4 315.2 61.4 A 74.281 74.281 0 0 0 324.013 60.894 A 65.028 65.028 0 0 0 326.8 60.5 A 73.839 73.839 0 0 0 331.345 59.617 Q 333.578 59.105 335.52 58.49 A 42.312 42.312 0 0 0 336.4 58.2 L 336.4 74.2 A 23.178 23.178 0 0 1 333.895 75.353 Q 330.791 76.584 326.15 77.65 A 61.105 61.105 0 0 1 316.795 79.017 A 74.781 74.781 0 0 1 311.5 79.2 Q 297.3 79.2 289.3 71.75 A 23.877 23.877 0 0 1 282.623 60.499 Q 281.548 56.694 281.347 52.141 A 48.408 48.408 0 0 1 281.3 50 A 40.755 40.755 0 0 1 282.141 41.447 Q 283.278 36.154 285.95 32.177 A 22.48 22.48 0 0 1 289.3 28.25 Q 296.667 21.389 309.292 20.847 A 51.412 51.412 0 0 1 311.5 20.8 A 42.777 42.777 0 0 1 318.81 21.381 Q 327.358 22.867 331.85 28.15 Q 338.1 35.5 338.1 46.4 Z M 144.1 79.2 Q 129.9 79.2 121.9 71.75 A 23.877 23.877 0 0 1 115.223 60.499 Q 114.148 56.694 113.947 52.141 A 48.408 48.408 0 0 1 113.9 50 A 40.755 40.755 0 0 1 114.741 41.447 Q 115.878 36.154 118.55 32.177 A 22.48 22.48 0 0 1 121.9 28.25 Q 129.267 21.389 141.892 20.847 A 51.412 51.412 0 0 1 144.1 20.8 A 44.228 44.228 0 0 1 152.85 21.613 Q 161.092 23.277 166.4 28.35 A 24.414 24.414 0 0 1 173.07 39.894 Q 174.3 44.437 174.3 50 A 40.755 40.755 0 0 1 173.459 58.553 Q 172.322 63.846 169.65 67.823 A 22.48 22.48 0 0 1 166.3 71.75 Q 158.933 78.611 146.308 79.153 A 51.412 51.412 0 0 1 144.1 79.2 Z M 149.9 55 L 149.9 45 Q 149.9 42.983 149.358 41.62 A 4.622 4.622 0 0 0 148.45 40.15 Q 147.186 38.799 144.822 38.626 A 9.858 9.858 0 0 0 144.1 38.6 Q 142.074 38.6 140.755 39.357 A 4.295 4.295 0 0 0 139.75 40.15 A 4.704 4.704 0 0 0 138.785 41.769 Q 138.3 43.092 138.3 45 L 138.3 55 Q 138.3 57.017 138.842 58.38 A 4.622 4.622 0 0 0 139.75 59.85 Q 141.014 61.201 143.378 61.374 A 9.858 9.858 0 0 0 144.1 61.4 Q 146.126 61.4 147.445 60.643 A 4.295 4.295 0 0 0 148.45 59.85 A 4.704 4.704 0 0 0 149.415 58.231 Q 149.9 56.908 149.9 55 Z M 305.7 42.6 L 317.3 42.6 L 317.3 41.4 Q 317.3 38 315.85 36.5 Q 314.4 35 311.5 35 Q 309.474 35 308.155 35.757 A 4.295 4.295 0 0 0 307.15 36.55 A 4.704 4.704 0 0 0 306.185 38.169 Q 305.7 39.492 305.7 41.4 L 305.7 42.6 Z" vector-effect="non-scaling-stroke"/></g></svg>